<svg width="768" height="210" viewBox="0 0 768 210" fill="none" xmlns="http://www.w3.org/2000/svg">
<g clip-path="url(#clip0_283_8271)">
<path d="M30.0444 92.4444V82.0444H16.1778V92.4444H30.0444ZM30.0444 80.8889V70.4889H16.1778V80.8889H30.0444ZM30.0444 69.3333V58.9333H16.1778V69.3333H30.0444ZM30.0444 57.7778V47.3778H16.1778V57.7778H30.0444ZM30.0444 46.2222V35.8222H16.1778V46.2222H30.0444ZM30.0444 23.1111V12.7111H16.1778V23.1111H30.0444ZM45.0667 92.4444V82.0444H31.2V92.4444H45.0667ZM45.0667 80.8889V70.4889H31.2V80.8889H45.0667ZM45.0667 69.3333V58.9333H31.2V69.3333H45.0667ZM45.0667 34.6667V24.2667H31.2V34.6667H45.0667ZM45.0667 23.1111V12.7111H31.2V23.1111H45.0667ZM91.2889 105.156H0V0H91.2889V105.156ZM60.0889 92.4444V82.0444H46.2222V92.4444H60.0889ZM60.0889 80.8889V70.4889H46.2222V80.8889H60.0889ZM60.0889 69.3333V58.9333H46.2222V69.3333H60.0889ZM60.0889 57.7778V47.3778H46.2222V57.7778H60.0889ZM60.0889 46.2222V35.8222H46.2222V46.2222H60.0889ZM60.0889 23.1111V12.7111H46.2222V23.1111H60.0889ZM15.0222 104V93.6H1.15556V104H15.0222ZM30.0444 104V93.6H16.1778V104H30.0444ZM45.0667 104V93.6H31.2V104H45.0667ZM60.0889 104V93.6H46.2222V104H60.0889ZM15.0222 11.5555V1.15556H1.15556V11.5555H15.0222ZM30.0444 11.5555V1.15556H16.1778V11.5555H30.0444ZM45.0667 11.5555V1.15556H31.2V11.5555H45.0667ZM60.0889 11.5555V1.15556H46.2222V11.5555H60.0889ZM75.1111 104V93.6H61.2444V104H75.1111ZM75.1111 11.5555V1.15556H61.2444V11.5555H75.1111ZM90.1333 92.4444V82.0444H76.2667V92.4444H90.1333ZM90.1333 80.8889V70.4889H76.2667V80.8889H90.1333ZM90.1333 69.3333V58.9333H76.2667V69.3333H90.1333ZM90.1333 57.7778V47.3778H76.2667V57.7778H90.1333ZM90.1333 46.2222V35.8222H76.2667V46.2222H90.1333ZM90.1333 34.6667V24.2667H76.2667V34.6667H90.1333ZM90.1333 23.1111V12.7111H76.2667V23.1111H90.1333ZM90.1333 104V93.6H76.2667V104H90.1333ZM90.1333 11.5555V1.15556H76.2667V11.5555H90.1333ZM105.108 80.8889V70.4889H91.2415V80.8889H105.108ZM120.13 80.8889V70.4889H106.264V80.8889H120.13ZM120.13 57.7778V47.3778H106.264V57.7778H120.13ZM120.13 46.2222V35.8222H106.264V46.2222H120.13ZM120.13 34.6667V24.2667H106.264V34.6667H120.13ZM120.13 23.1111V12.7111H106.264V23.1111H120.13ZM151.33 105.156H90.0859V0H151.33V105.156ZM150.175 92.4444V82.0444H136.308V92.4444H150.175ZM150.175 80.8889V70.4889H136.308V80.8889H150.175ZM150.175 69.3333V58.9333H136.308V69.3333H150.175ZM150.175 57.7778V47.3778H136.308V57.7778H150.175ZM150.175 46.2222V35.8222H136.308V46.2222H150.175ZM150.175 34.6667V24.2667H136.308V34.6667H150.175ZM150.175 23.1111V12.7111H136.308V23.1111H150.175ZM105.108 104V93.6H91.2415V104H105.108ZM120.13 104V93.6H106.264V104H120.13ZM135.153 104V93.6H121.286V104H135.153ZM150.175 104V93.6H136.308V104H150.175ZM105.108 11.5555V1.15556H91.2415V11.5555H105.108ZM120.13 11.5555V1.15556H106.264V11.5555H120.13ZM135.153 11.5555V1.15556H121.286V11.5555H135.153ZM150.175 11.5555V1.15556H136.308V11.5555H150.175ZM105.108 69.3333V58.9333H91.2415V69.3333H105.108ZM165.233 69.3333V58.9333H151.366V69.3333H165.233ZM165.233 57.7778V47.3778H151.366V57.7778H165.233ZM165.233 46.2222V35.8222H151.366V46.2222H165.233ZM180.255 80.8889V70.4889H166.389V80.8889H180.255ZM180.255 69.3333V58.9333H166.389V69.3333H180.255ZM180.255 46.2222V35.8222H166.389V46.2222H180.255ZM180.255 34.6667V24.2667H166.389V34.6667H180.255ZM195.278 57.7778V47.3778H181.411V57.7778H195.278ZM211.455 105.156H150.211V0H211.455V105.156ZM210.3 92.4444V82.0444H196.433V92.4444H210.3ZM210.3 80.8889V70.4889H196.433V80.8889H210.3ZM210.3 69.3333V58.9333H196.433V69.3333H210.3ZM210.3 57.7778V47.3778H196.433V57.7778H210.3ZM210.3 46.2222V35.8222H196.433V46.2222H210.3ZM210.3 34.6667V24.2667H196.433V34.6667H210.3ZM210.3 23.1111V12.7111H196.433V23.1111H210.3ZM165.233 104V93.6H151.366V104H165.233ZM180.255 104V93.6H166.389V104H180.255ZM195.278 104V93.6H181.411V104H195.278ZM210.3 104V93.6H196.433V104H210.3ZM165.233 11.5555V1.15556H151.366V11.5555H165.233ZM180.255 11.5555V1.15556H166.389V11.5555H180.255ZM195.278 11.5555V1.15556H181.411V11.5555H195.278ZM210.3 11.5555V1.15556H196.433V11.5555H210.3ZM165.233 23.1111V12.7111H151.366V23.1111H165.233ZM195.278 23.1111V12.7111H181.411V23.1111H195.278ZM240.38 80.8889V70.4889H226.514V80.8889H240.38ZM240.38 69.3333V58.9333H226.514V69.3333H240.38ZM240.38 46.2222V35.8222H226.514V46.2222H240.38ZM240.38 34.6667V24.2667H226.514V34.6667H240.38ZM255.403 80.8889V70.4889H241.536V80.8889H255.403ZM255.403 69.3333V58.9333H241.536V69.3333H255.403ZM255.403 46.2222V35.8222H241.536V46.2222H255.403ZM255.403 34.6667V24.2667H241.536V34.6667H255.403ZM271.58 105.156H210.336V0H271.58V105.156ZM270.425 92.4444V82.0444H256.558V92.4444H270.425ZM270.425 80.8889V70.4889H256.558V80.8889H270.425ZM270.425 69.3333V58.9333H256.558V69.3333H270.425ZM270.425 57.7778V47.3778H256.558V57.7778H270.425ZM270.425 46.2222V35.8222H256.558V46.2222H270.425ZM270.425 34.6667V24.2667H256.558V34.6667H270.425ZM270.425 23.1111V12.7111H256.558V23.1111H270.425ZM225.358 104V93.6H211.491V104H225.358ZM240.38 104V93.6H226.514V104H240.38ZM255.403 104V93.6H241.536V104H255.403ZM270.425 104V93.6H256.558V104H270.425ZM225.358 11.5555V1.15556H211.491V11.5555H225.358ZM240.38 11.5555V1.15556H226.514V11.5555H240.38ZM255.403 11.5555V1.15556H241.536V11.5555H255.403ZM270.425 11.5555V1.15556H256.558V11.5555H270.425ZM300.505 92.4444V82.0444H286.639V92.4444H300.505ZM300.505 80.8889V70.4889H286.639V80.8889H300.505ZM300.505 46.2222V35.8222H286.639V46.2222H300.505ZM300.505 34.6667V24.2667H286.639V34.6667H300.505ZM300.505 23.1111V12.7111H286.639V23.1111H300.505ZM315.528 92.4444V82.0444H301.661V92.4444H315.528ZM315.528 80.8889V70.4889H301.661V80.8889H315.528ZM315.528 69.3333V58.9333H301.661V69.3333H315.528ZM315.528 57.7778V47.3778H301.661V57.7778H315.528ZM315.528 23.1111V12.7111H301.661V23.1111H315.528ZM346.728 105.156H270.461V0H346.728V105.156ZM285.483 104V93.6H271.616V104H285.483ZM300.505 104V93.6H286.639V104H300.505ZM315.528 104V93.6H301.661V104H315.528ZM330.55 104V93.6H316.683V104H330.55ZM285.483 11.5555V1.15556H271.616V11.5555H285.483ZM330.55 11.5555V1.15556H316.683V11.5555H330.55ZM345.572 92.4444V82.0444H331.705V92.4444H345.572ZM345.572 80.8889V70.4889H331.705V80.8889H345.572ZM345.572 69.3333V58.9333H331.705V69.3333H345.572ZM345.572 57.7778V47.3778H331.705V57.7778H345.572ZM345.572 46.2222V35.8222H331.705V46.2222H345.572ZM345.572 34.6667V24.2667H331.705V34.6667H345.572ZM345.572 23.1111V12.7111H331.705V23.1111H345.572ZM345.572 104V93.6H331.705V104H345.572ZM345.572 11.5555V1.15556H331.705V11.5555H345.572ZM285.483 23.1111V12.7111H271.616V23.1111H285.483ZM330.55 23.1111V12.7111H316.683V23.1111H330.55ZM30.0444 184.889V174.489H16.1778V184.889H30.0444ZM30.0444 173.333V162.933H16.1778V173.333H30.0444ZM30.0444 161.778V151.378H16.1778V161.778H30.0444ZM30.0444 150.222V139.822H16.1778V150.222H30.0444ZM30.0444 138.667V128.267H16.1778V138.667H30.0444ZM45.0667 173.333V162.933H31.2V173.333H45.0667ZM45.0667 161.778V151.378H31.2V161.778H45.0667ZM45.0667 150.222V139.822H31.2V150.222H45.0667ZM61.2444 209.156H0V104H61.2444V209.156ZM60.0889 196.444V186.044H46.2222V196.444H60.0889ZM60.0889 184.889V174.489H46.2222V184.889H60.0889ZM60.0889 173.333V162.933H46.2222V173.333H60.0889ZM60.0889 161.778V151.378H46.2222V161.778H60.0889ZM60.0889 150.222V139.822H46.2222V150.222H60.0889ZM60.0889 138.667V128.267H46.2222V138.667H60.0889ZM60.0889 127.111V116.711H46.2222V127.111H60.0889ZM15.0222 208V197.6H1.15556V208H15.0222ZM30.0444 208V197.6H16.1778V208H30.0444ZM45.0667 208V197.6H31.2V208H45.0667ZM60.0889 208V197.6H46.2222V208H60.0889ZM15.0222 115.556V105.156H1.15556V115.556H15.0222ZM30.0444 115.556V105.156H16.1778V115.556H30.0444ZM45.0667 115.556V105.156H31.2V115.556H45.0667ZM60.0889 115.556V105.156H46.2222V115.556H60.0889ZM75.1472 173.333V162.933H61.2806V173.333H75.1472ZM75.1472 161.778V151.378H61.2806V161.778H75.1472ZM75.1472 150.222V139.822H61.2806V150.222H75.1472ZM75.1472 138.667V128.267H61.2806V138.667H75.1472ZM75.1472 127.111V116.711H61.2806V127.111H75.1472ZM90.1694 196.444V186.044H76.3028V196.444H90.1694ZM90.1694 184.889V174.489H76.3028V184.889H90.1694ZM90.1694 127.111V116.711H76.3028V127.111H90.1694ZM105.192 196.444V186.044H91.325V196.444H105.192ZM105.192 184.889V174.489H91.325V184.889H105.192ZM105.192 173.333V162.933H91.325V173.333H105.192ZM105.192 161.778V151.378H91.325V161.778H105.192ZM105.192 150.222V139.822H91.325V150.222H105.192ZM105.192 138.667V128.267H91.325V138.667H105.192ZM136.392 209.156H60.125V104H136.392V209.156ZM75.1472 208V197.6H61.2806V208H75.1472ZM90.1694 208V197.6H76.3028V208H90.1694ZM105.192 208V197.6H91.325V208H105.192ZM120.214 208V197.6H106.347V208H120.214ZM75.1472 115.556V105.156H61.2806V115.556H75.1472ZM90.1694 115.556V105.156H76.3028V115.556H90.1694ZM105.192 115.556V105.156H91.325V115.556H105.192ZM120.214 115.556V105.156H106.347V115.556H120.214ZM135.236 196.444V186.044H121.369V196.444H135.236ZM135.236 184.889V174.489H121.369V184.889H135.236ZM135.236 173.333V162.933H121.369V173.333H135.236ZM135.236 161.778V151.378H121.369V161.778H135.236ZM135.236 150.222V139.822H121.369V150.222H135.236ZM135.236 138.667V128.267H121.369V138.667H135.236ZM135.236 127.111V116.711H121.369V127.111H135.236ZM135.236 208V197.6H121.369V208H135.236ZM135.236 115.556V105.156H121.369V115.556H135.236ZM150.303 184.889V174.489H136.437V184.889H150.303ZM165.326 184.889V174.489H151.459V184.889H165.326ZM165.326 161.778V151.378H151.459V161.778H165.326ZM165.326 150.222V139.822H151.459V150.222H165.326ZM165.326 138.667V128.267H151.459V138.667H165.326ZM165.326 127.111V116.711H151.459V127.111H165.326ZM196.526 209.156H135.281V104H196.526V209.156ZM195.37 196.444V186.044H181.503V196.444H195.37ZM195.37 184.889V174.489H181.503V184.889H195.37ZM195.37 173.333V162.933H181.503V173.333H195.37ZM195.37 161.778V151.378H181.503V161.778H195.37ZM195.37 150.222V139.822H181.503V150.222H195.37ZM195.37 138.667V128.267H181.503V138.667H195.37ZM195.37 127.111V116.711H181.503V127.111H195.37ZM150.303 208V197.6H136.437V208H150.303ZM165.326 208V197.6H151.459V208H165.326ZM180.348 208V197.6H166.481V208H180.348ZM195.37 208V197.6H181.503V208H195.37ZM150.303 115.556V105.156H136.437V115.556H150.303ZM165.326 115.556V105.156H151.459V115.556H165.326ZM180.348 115.556V105.156H166.481V115.556H180.348ZM195.37 115.556V105.156H181.503V115.556H195.37ZM150.303 173.333V162.933H136.437V173.333H150.303ZM210.428 196.444V186.044H196.562V196.444H210.428ZM210.428 184.889V174.489H196.562V184.889H210.428ZM210.428 173.333V162.933H196.562V173.333H210.428ZM225.451 196.444V186.044H211.584V196.444H225.451ZM225.451 184.889V174.489H211.584V184.889H225.451ZM225.451 173.333V162.933H211.584V173.333H225.451ZM225.451 150.222V139.822H211.584V150.222H225.451ZM225.451 138.667V128.267H211.584V138.667H225.451ZM225.451 127.111V116.711H211.584V127.111H225.451ZM256.651 209.156H195.406V104H256.651V209.156ZM255.495 196.444V186.044H241.628V196.444H255.495ZM255.495 184.889V174.489H241.628V184.889H255.495ZM255.495 173.333V162.933H241.628V173.333H255.495ZM255.495 161.778V151.378H241.628V161.778H255.495ZM255.495 150.222V139.822H241.628V150.222H255.495ZM255.495 138.667V128.267H241.628V138.667H255.495ZM255.495 127.111V116.711H241.628V127.111H255.495ZM210.428 208V197.6H196.562V208H210.428ZM225.451 208V197.6H211.584V208H225.451ZM240.473 208V197.6H226.606V208H240.473ZM255.495 208V197.6H241.628V208H255.495ZM210.428 115.556V105.156H196.562V115.556H210.428ZM225.451 115.556V105.156H211.584V115.556H225.451ZM240.473 115.556V105.156H226.606V115.556H240.473ZM255.495 115.556V105.156H241.628V115.556H255.495ZM285.576 196.444V186.044H271.709V196.444H285.576ZM285.576 184.889V174.489H271.709V184.889H285.576ZM285.576 161.778V151.378H271.709V161.778H285.576ZM285.576 150.222V139.822H271.709V150.222H285.576ZM285.576 138.667V128.267H271.709V138.667H285.576ZM316.776 209.156H255.531V104H316.776V209.156ZM315.62 196.444V186.044H301.753V196.444H315.62ZM315.62 184.889V174.489H301.753V184.889H315.62ZM315.62 173.333V162.933H301.753V173.333H315.62ZM315.62 161.778V151.378H301.753V161.778H315.62ZM315.62 150.222V139.822H301.753V150.222H315.62ZM315.62 138.667V128.267H301.753V138.667H315.62ZM315.62 127.111V116.711H301.753V127.111H315.62ZM270.553 208V197.6H256.687V208H270.553ZM285.576 208V197.6H271.709V208H285.576ZM300.598 208V197.6H286.731V208H300.598ZM315.62 208V197.6H301.753V208H315.62ZM270.553 115.556V105.156H256.687V115.556H270.553ZM285.576 115.556V105.156H271.709V115.556H285.576ZM300.598 115.556V105.156H286.731V115.556H300.598ZM315.62 115.556V105.156H301.753V115.556H315.62ZM345.701 196.444V186.044H331.834V196.444H345.701ZM345.701 184.889V174.489H331.834V184.889H345.701ZM345.701 150.222V139.822H331.834V150.222H345.701ZM345.701 138.667V128.267H331.834V138.667H345.701ZM345.701 127.111V116.711H331.834V127.111H345.701ZM360.723 196.444V186.044H346.856V196.444H360.723ZM360.723 184.889V174.489H346.856V184.889H360.723ZM360.723 173.333V162.933H346.856V173.333H360.723ZM360.723 161.778V151.378H346.856V161.778H360.723ZM360.723 127.111V116.711H346.856V127.111H360.723ZM391.923 209.156H315.656V104H391.923V209.156ZM330.678 208V197.6H316.812V208H330.678ZM345.701 208V197.6H331.834V208H345.701ZM360.723 208V197.6H346.856V208H360.723ZM375.745 208V197.6H361.878V208H375.745ZM330.678 115.556V105.156H316.812V115.556H330.678ZM375.745 115.556V105.156H361.878V115.556H375.745ZM390.767 196.444V186.044H376.901V196.444H390.767ZM390.767 184.889V174.489H376.901V184.889H390.767ZM390.767 173.333V162.933H376.901V173.333H390.767ZM390.767 161.778V151.378H376.901V161.778H390.767ZM390.767 150.222V139.822H376.901V150.222H390.767ZM390.767 138.667V128.267H376.901V138.667H390.767ZM390.767 127.111V116.711H376.901V127.111H390.767ZM390.767 208V197.6H376.901V208H390.767ZM390.767 115.556V105.156H376.901V115.556H390.767ZM330.678 127.111V116.711H316.812V127.111H330.678ZM375.745 127.111V116.711H361.878V127.111H375.745ZM420.857 196.444V186.044H406.99V196.444H420.857ZM420.857 184.889V174.489H406.99V184.889H420.857ZM420.857 173.333V162.933H406.99V173.333H420.857ZM420.857 150.222V139.822H406.99V150.222H420.857ZM420.857 138.667V128.267H406.99V138.667H420.857ZM420.857 127.111V116.711H406.99V127.111H420.857ZM452.057 209.156H390.812V104H452.057V209.156ZM450.901 196.444V186.044H437.035V196.444H450.901ZM450.901 184.889V174.489H437.035V184.889H450.901ZM450.901 173.333V162.933H437.035V173.333H450.901ZM450.901 161.778V151.378H437.035V161.778H450.901ZM450.901 150.222V139.822H437.035V150.222H450.901ZM450.901 138.667V128.267H437.035V138.667H450.901ZM450.901 127.111V116.711H437.035V127.111H450.901ZM405.835 208V197.6H391.968V208H405.835ZM420.857 208V197.6H406.99V208H420.857ZM435.879 208V197.6H422.013V208H435.879ZM450.901 208V197.6H437.035V208H450.901ZM405.835 115.556V105.156H391.968V115.556H405.835ZM420.857 115.556V105.156H406.99V115.556H420.857ZM435.879 115.556V105.156H422.013V115.556H435.879ZM450.901 115.556V105.156H437.035V115.556H450.901ZM480.982 184.889V174.489H467.115V184.889H480.982ZM480.982 173.333V162.933H467.115V173.333H480.982ZM480.982 161.778V151.378H467.115V161.778H480.982ZM480.982 150.222V139.822H467.115V150.222H480.982ZM480.982 138.667V128.267H467.115V138.667H480.982ZM512.182 209.156H450.938V104H512.182V209.156ZM511.026 196.444V186.044H497.16V196.444H511.026ZM511.026 184.889V174.489H497.16V184.889H511.026ZM511.026 173.333V162.933H497.16V173.333H511.026ZM511.026 161.778V151.378H497.16V161.778H511.026ZM511.026 150.222V139.822H497.16V150.222H511.026ZM511.026 138.667V128.267H497.16V138.667H511.026ZM511.026 127.111V116.711H497.16V127.111H511.026ZM465.96 208V197.6H452.093V208H465.96ZM480.982 208V197.6H467.115V208H480.982ZM496.004 208V197.6H482.138V208H496.004ZM511.026 208V197.6H497.16V208H511.026ZM465.96 115.556V105.156H452.093V115.556H465.96ZM480.982 115.556V105.156H467.115V115.556H480.982ZM496.004 115.556V105.156H482.138V115.556H496.004ZM511.026 115.556V105.156H497.16V115.556H511.026ZM541.107 184.889V174.489H527.24V184.889H541.107ZM541.107 173.333V162.933H527.24V173.333H541.107ZM541.107 161.778V151.378H527.24V161.778H541.107ZM541.107 150.222V139.822H527.24V150.222H541.107ZM541.107 138.667V128.267H527.24V138.667H541.107ZM556.129 173.333V162.933H542.263V173.333H556.129ZM556.129 161.778V151.378H542.263V161.778H556.129ZM556.129 150.222V139.822H542.263V150.222H556.129ZM572.307 209.156H511.062V104H572.307V209.156ZM571.151 196.444V186.044H557.285V196.444H571.151ZM571.151 184.889V174.489H557.285V184.889H571.151ZM571.151 173.333V162.933H557.285V173.333H571.151ZM571.151 161.778V151.378H557.285V161.778H571.151ZM571.151 150.222V139.822H557.285V150.222H571.151ZM571.151 138.667V128.267H557.285V138.667H571.151ZM571.151 127.111V116.711H557.285V127.111H571.151ZM526.085 208V197.6H512.218V208H526.085ZM541.107 208V197.6H527.24V208H541.107ZM556.129 208V197.6H542.263V208H556.129ZM571.151 208V197.6H557.285V208H571.151ZM526.085 115.556V105.156H512.218V115.556H526.085ZM541.107 115.556V105.156H527.24V115.556H541.107ZM556.129 115.556V105.156H542.263V115.556H556.129ZM571.151 115.556V105.156H557.285V115.556H571.151ZM586.21 196.444V186.044H572.343V196.444H586.21ZM586.21 184.889V174.489H572.343V184.889H586.21ZM586.21 173.333V162.933H572.343V173.333H586.21ZM586.21 161.778V151.378H572.343V161.778H586.21ZM586.21 150.222V139.822H572.343V150.222H586.21ZM586.21 138.667V128.267H572.343V138.667H586.21ZM616.254 196.444V186.044H602.388V196.444H616.254ZM616.254 184.889V174.489H602.388V184.889H616.254ZM616.254 173.333V162.933H602.388V173.333H616.254ZM616.254 161.778V151.378H602.388V161.778H616.254ZM616.254 150.222V139.822H602.388V150.222H616.254ZM616.254 138.667V128.267H602.388V138.667H616.254ZM632.432 209.156H571.188V104H632.432V209.156ZM631.276 196.444V186.044H617.41V196.444H631.276ZM631.276 184.889V174.489H617.41V184.889H631.276ZM631.276 173.333V162.933H617.41V173.333H631.276ZM631.276 161.778V151.378H617.41V161.778H631.276ZM631.276 150.222V139.822H617.41V150.222H631.276ZM631.276 138.667V128.267H617.41V138.667H631.276ZM631.276 127.111V116.711H617.41V127.111H631.276ZM586.21 208V197.6H572.343V208H586.21ZM601.232 208V197.6H587.365V208H601.232ZM616.254 208V197.6H602.388V208H616.254ZM631.276 208V197.6H617.41V208H631.276ZM586.21 115.556V105.156H572.343V115.556H586.21ZM601.232 115.556V105.156H587.365V115.556H601.232ZM616.254 115.556V105.156H602.388V115.556H616.254ZM631.276 115.556V105.156H617.41V115.556H631.276ZM661.357 184.889V174.489H647.49V184.889H661.357ZM661.357 173.333V162.933H647.49V173.333H661.357ZM661.357 150.222V139.822H647.49V150.222H661.357ZM661.357 138.667V128.267H647.49V138.667H661.357ZM676.379 184.889V174.489H662.513V184.889H676.379ZM676.379 173.333V162.933H662.513V173.333H676.379ZM676.379 150.222V139.822H662.513V150.222H676.379ZM676.379 138.667V128.267H662.513V138.667H676.379ZM692.557 209.156H631.312V104H692.557V209.156ZM691.401 196.444V186.044H677.535V196.444H691.401ZM691.401 184.889V174.489H677.535V184.889H691.401ZM691.401 173.333V162.933H677.535V173.333H691.401ZM691.401 161.778V151.378H677.535V161.778H691.401ZM691.401 150.222V139.822H677.535V150.222H691.401ZM691.401 138.667V128.267H677.535V138.667H691.401ZM691.401 127.111V116.711H677.535V127.111H691.401ZM646.335 208V197.6H632.468V208H646.335ZM661.357 208V197.6H647.49V208H661.357ZM676.379 208V197.6H662.513V208H676.379ZM691.401 208V197.6H677.535V208H691.401ZM646.335 115.556V105.156H632.468V115.556H646.335ZM661.357 115.556V105.156H647.49V115.556H661.357ZM676.379 115.556V105.156H662.513V115.556H676.379ZM691.401 115.556V105.156H677.535V115.556H691.401ZM721.482 196.444V186.044H707.615V196.444H721.482ZM721.482 184.889V174.489H707.615V184.889H721.482ZM721.482 150.222V139.822H707.615V150.222H721.482ZM721.482 138.667V128.267H707.615V138.667H721.482ZM721.482 127.111V116.711H707.615V127.111H721.482ZM736.504 196.444V186.044H722.638V196.444H736.504ZM736.504 184.889V174.489H722.638V184.889H736.504ZM736.504 173.333V162.933H722.638V173.333H736.504ZM736.504 161.778V151.378H722.638V161.778H736.504ZM736.504 127.111V116.711H722.638V127.111H736.504ZM767.704 209.156H691.438V104H767.704V209.156ZM706.46 208V197.6H692.593V208H706.46ZM721.482 208V197.6H707.615V208H721.482ZM736.504 208V197.6H722.638V208H736.504ZM751.526 208V197.6H737.66V208H751.526ZM706.46 115.556V105.156H692.593V115.556H706.46ZM751.526 115.556V105.156H737.66V115.556H751.526ZM766.549 196.444V186.044H752.682V196.444H766.549ZM766.549 184.889V174.489H752.682V184.889H766.549ZM766.549 173.333V162.933H752.682V173.333H766.549ZM766.549 161.778V151.378H752.682V161.778H766.549ZM766.549 150.222V139.822H752.682V150.222H766.549ZM766.549 138.667V128.267H752.682V138.667H766.549ZM766.549 127.111V116.711H752.682V127.111H766.549ZM766.549 208V197.6H752.682V208H766.549ZM766.549 115.556V105.156H752.682V115.556H766.549ZM706.46 127.111V116.711H692.593V127.111H706.46ZM751.526 127.111V116.711H737.66V127.111H751.526Z" fill="#D2D2D2"/>
</g>
<defs>
<clipPath id="clip0_283_8271">
<rect width="768" height="210" fill="white"/>
</clipPath>
</defs>
</svg>
