<svg width="1920" height="175" viewBox="0 0 1920 175" fill="none" xmlns="http://www.w3.org/2000/svg">
<g clip-path="url(#clip0_282_5153)">
<path d="M49.8333 153.333V136.083H26.8333V153.333H49.8333ZM49.8333 134.167V116.917H26.8333V134.167H49.8333ZM49.8333 115V97.75H26.8333V115H49.8333ZM49.8333 95.8333V78.5833H26.8333V95.8333H49.8333ZM49.8333 76.6667V59.4167H26.8333V76.6667H49.8333ZM49.8333 38.3333V21.0833H26.8333V38.3333H49.8333ZM74.75 153.333V136.083H51.75V153.333H74.75ZM74.75 134.167V116.917H51.75V134.167H74.75ZM74.75 115V97.75H51.75V115H74.75ZM74.75 57.5V40.25H51.75V57.5H74.75ZM74.75 38.3333V21.0833H51.75V38.3333H74.75ZM151.417 174.417H0V0H151.417V174.417ZM99.6667 153.333V136.083H76.6667V153.333H99.6667ZM99.6667 134.167V116.917H76.6667V134.167H99.6667ZM99.6667 115V97.75H76.6667V115H99.6667ZM99.6667 95.8333V78.5833H76.6667V95.8333H99.6667ZM99.6667 76.6667V59.4167H76.6667V76.6667H99.6667ZM99.6667 38.3333V21.0833H76.6667V38.3333H99.6667ZM24.9167 172.5V155.25H1.91667V172.5H24.9167ZM49.8333 172.5V155.25H26.8333V172.5H49.8333ZM74.75 172.5V155.25H51.75V172.5H74.75ZM99.6667 172.5V155.25H76.6667V172.5H99.6667ZM24.9167 19.1667V1.91667H1.91667V19.1667H24.9167ZM49.8333 19.1667V1.91667H26.8333V19.1667H49.8333ZM74.75 19.1667V1.91667H51.75V19.1667H74.75ZM99.6667 19.1667V1.91667H76.6667V19.1667H99.6667ZM124.583 172.5V155.25H101.583V172.5H124.583ZM124.583 19.1667V1.91667H101.583V19.1667H124.583ZM149.5 153.333V136.083H126.5V153.333H149.5ZM149.5 134.167V116.917H126.5V134.167H149.5ZM149.5 115V97.75H126.5V115H149.5ZM149.5 95.8333V78.5833H126.5V95.8333H149.5ZM149.5 76.6667V59.4167H126.5V76.6667H149.5ZM149.5 57.5V40.25H126.5V57.5H149.5ZM149.5 38.3333V21.0833H126.5V38.3333H149.5ZM149.5 172.5V155.25H126.5V172.5H149.5ZM149.5 19.1667V1.91667H126.5V19.1667H149.5ZM174.338 134.167V116.917H151.338V134.167H174.338ZM199.255 134.167V116.917H176.255V134.167H199.255ZM199.255 95.8333V78.5833H176.255V95.8333H199.255ZM199.255 76.6667V59.4167H176.255V76.6667H199.255ZM199.255 57.5V40.25H176.255V57.5H199.255ZM199.255 38.3333V21.0833H176.255V38.3333H199.255ZM251.005 174.417H149.421V0H251.005V174.417ZM249.088 153.333V136.083H226.088V153.333H249.088ZM249.088 134.167V116.917H226.088V134.167H249.088ZM249.088 115V97.75H226.088V115H249.088ZM249.088 95.8333V78.5833H226.088V95.8333H249.088ZM249.088 76.6667V59.4167H226.088V76.6667H249.088ZM249.088 57.5V40.25H226.088V57.5H249.088ZM249.088 38.3333V21.0833H226.088V38.3333H249.088ZM174.338 172.5V155.25H151.338V172.5H174.338ZM199.255 172.5V155.25H176.255V172.5H199.255ZM224.171 172.5V155.25H201.171V172.5H224.171ZM249.088 172.5V155.25H226.088V172.5H249.088ZM174.338 19.1667V1.91667H151.338V19.1667H174.338ZM199.255 19.1667V1.91667H176.255V19.1667H199.255ZM224.171 19.1667V1.91667H201.171V19.1667H224.171ZM249.088 19.1667V1.91667H226.088V19.1667H249.088ZM174.338 115V97.75H151.338V115H174.338ZM274.065 115V97.75H251.065V115H274.065ZM274.065 95.8333V78.5833H251.065V95.8333H274.065ZM274.065 76.6667V59.4167H251.065V76.6667H274.065ZM298.981 134.167V116.917H275.981V134.167H298.981ZM298.981 115V97.75H275.981V115H298.981ZM298.981 76.6667V59.4167H275.981V76.6667H298.981ZM298.981 57.5V40.25H275.981V57.5H298.981ZM323.898 95.8333V78.5833H300.898V95.8333H323.898ZM350.731 174.417H249.148V0H350.731V174.417ZM348.815 153.333V136.083H325.815V153.333H348.815ZM348.815 134.167V116.917H325.815V134.167H348.815ZM348.815 115V97.75H325.815V115H348.815ZM348.815 95.8333V78.5833H325.815V95.8333H348.815ZM348.815 76.6667V59.4167H325.815V76.6667H348.815ZM348.815 57.5V40.25H325.815V57.5H348.815ZM348.815 38.3333V21.0833H325.815V38.3333H348.815ZM274.065 172.5V155.25H251.065V172.5H274.065ZM298.981 172.5V155.25H275.981V172.5H298.981ZM323.898 172.5V155.25H300.898V172.5H323.898ZM348.815 172.5V155.25H325.815V172.5H348.815ZM274.065 19.1667V1.91667H251.065V19.1667H274.065ZM298.981 19.1667V1.91667H275.981V19.1667H298.981ZM323.898 19.1667V1.91667H300.898V19.1667H323.898ZM348.815 19.1667V1.91667H325.815V19.1667H348.815ZM274.065 38.3333V21.0833H251.065V38.3333H274.065ZM323.898 38.3333V21.0833H300.898V38.3333H323.898ZM398.708 134.167V116.917H375.708V134.167H398.708ZM398.708 115V97.75H375.708V115H398.708ZM398.708 76.6667V59.4167H375.708V76.6667H398.708ZM398.708 57.5V40.25H375.708V57.5H398.708ZM423.625 134.167V116.917H400.625V134.167H423.625ZM423.625 115V97.75H400.625V115H423.625ZM423.625 76.6667V59.4167H400.625V76.6667H423.625ZM423.625 57.5V40.25H400.625V57.5H423.625ZM450.458 174.417H348.875V0H450.458V174.417ZM448.541 153.333V136.083H425.541V153.333H448.541ZM448.541 134.167V116.917H425.541V134.167H448.541ZM448.541 115V97.75H425.541V115H448.541ZM448.541 95.8333V78.5833H425.541V95.8333H448.541ZM448.541 76.6667V59.4167H425.541V76.6667H448.541ZM448.541 57.5V40.25H425.541V57.5H448.541ZM448.541 38.3333V21.0833H425.541V38.3333H448.541ZM373.791 172.5V155.25H350.791V172.5H373.791ZM398.708 172.5V155.25H375.708V172.5H398.708ZM423.625 172.5V155.25H400.625V172.5H423.625ZM448.541 172.5V155.25H425.541V172.5H448.541ZM373.791 19.1667V1.91667H350.791V19.1667H373.791ZM398.708 19.1667V1.91667H375.708V19.1667H398.708ZM423.625 19.1667V1.91667H400.625V19.1667H423.625ZM448.541 19.1667V1.91667H425.541V19.1667H448.541ZM498.434 153.333V136.083H475.434V153.333H498.434ZM498.434 134.167V116.917H475.434V134.167H498.434ZM498.434 76.6667V59.4167H475.434V76.6667H498.434ZM498.434 57.5V40.25H475.434V57.5H498.434ZM498.434 38.3333V21.0833H475.434V38.3333H498.434ZM523.351 153.333V136.083H500.351V153.333H523.351ZM523.351 134.167V116.917H500.351V134.167H523.351ZM523.351 115V97.75H500.351V115H523.351ZM523.351 95.8333V78.5833H500.351V95.8333H523.351ZM523.351 38.3333V21.0833H500.351V38.3333H523.351ZM575.101 174.417H448.601V0H575.101V174.417ZM473.518 172.5V155.25H450.518V172.5H473.518ZM498.434 172.5V155.25H475.434V172.5H498.434ZM523.351 172.5V155.25H500.351V172.5H523.351ZM548.268 172.5V155.25H525.268V172.5H548.268ZM473.518 19.1667V1.91667H450.518V19.1667H473.518ZM548.268 19.1667V1.91667H525.268V19.1667H548.268ZM573.184 153.333V136.083H550.184V153.333H573.184ZM573.184 134.167V116.917H550.184V134.167H573.184ZM573.184 115V97.75H550.184V115H573.184ZM573.184 95.8333V78.5833H550.184V95.8333H573.184ZM573.184 76.6667V59.4167H550.184V76.6667H573.184ZM573.184 57.5V40.25H550.184V57.5H573.184ZM573.184 38.3333V21.0833H550.184V38.3333H573.184ZM573.184 172.5V155.25H550.184V172.5H573.184ZM573.184 19.1667V1.91667H550.184V19.1667H573.184ZM473.518 38.3333V21.0833H450.518V38.3333H473.518ZM548.268 38.3333V21.0833H525.268V38.3333H548.268ZM697.888 134.167V116.917H674.888V134.167H697.888ZM697.888 115V97.75H674.888V115H697.888ZM697.888 95.8333V78.5833H674.888V95.8333H697.888ZM697.888 76.6667V59.4167H674.888V76.6667H697.888ZM697.888 57.5V40.25H674.888V57.5H697.888ZM722.804 115V97.75H699.804V115H722.804ZM722.804 95.8333V78.5833H699.804V95.8333H722.804ZM722.804 76.6667V59.4167H699.804V76.6667H722.804ZM749.638 174.417H648.054V0H749.638V174.417ZM747.721 153.333V136.083H724.721V153.333H747.721ZM747.721 134.167V116.917H724.721V134.167H747.721ZM747.721 115V97.75H724.721V115H747.721ZM747.721 95.8333V78.5833H724.721V95.8333H747.721ZM747.721 76.6667V59.4167H724.721V76.6667H747.721ZM747.721 57.5V40.25H724.721V57.5H747.721ZM747.721 38.3333V21.0833H724.721V38.3333H747.721ZM672.971 172.5V155.25H649.971V172.5H672.971ZM697.888 172.5V155.25H674.888V172.5H697.888ZM722.804 172.5V155.25H699.804V172.5H722.804ZM747.721 172.5V155.25H724.721V172.5H747.721ZM672.971 19.1667V1.91667H649.971V19.1667H672.971ZM697.888 19.1667V1.91667H674.888V19.1667H697.888ZM722.804 19.1667V1.91667H699.804V19.1667H722.804ZM747.721 19.1667V1.91667H724.721V19.1667H747.721ZM772.697 115V97.75H749.697V115H772.697ZM772.697 95.8333V78.5833H749.697V95.8333H772.697ZM772.697 76.6667V59.4167H749.697V76.6667H772.697ZM772.697 57.5V40.25H749.697V57.5H772.697ZM772.697 38.3333V21.0833H749.697V38.3333H772.697ZM797.614 153.333V136.083H774.614V153.333H797.614ZM797.614 134.167V116.917H774.614V134.167H797.614ZM797.614 38.3333V21.0833H774.614V38.3333H797.614ZM822.531 153.333V136.083H799.531V153.333H822.531ZM822.531 134.167V116.917H799.531V134.167H822.531ZM822.531 115V97.75H799.531V115H822.531ZM822.531 95.8333V78.5833H799.531V95.8333H822.531ZM822.531 76.6667V59.4167H799.531V76.6667H822.531ZM822.531 57.5V40.25H799.531V57.5H822.531ZM874.281 174.417H747.781V0H874.281V174.417ZM772.697 172.5V155.25H749.697V172.5H772.697ZM797.614 172.5V155.25H774.614V172.5H797.614ZM822.531 172.5V155.25H799.531V172.5H822.531ZM847.447 172.5V155.25H824.447V172.5H847.447ZM772.697 19.1667V1.91667H749.697V19.1667H772.697ZM797.614 19.1667V1.91667H774.614V19.1667H797.614ZM822.531 19.1667V1.91667H799.531V19.1667H822.531ZM847.447 19.1667V1.91667H824.447V19.1667H847.447ZM872.364 153.333V136.083H849.364V153.333H872.364ZM872.364 134.167V116.917H849.364V134.167H872.364ZM872.364 115V97.75H849.364V115H872.364ZM872.364 95.8333V78.5833H849.364V95.8333H872.364ZM872.364 76.6667V59.4167H849.364V76.6667H872.364ZM872.364 57.5V40.25H849.364V57.5H872.364ZM872.364 38.3333V21.0833H849.364V38.3333H872.364ZM872.364 172.5V155.25H849.364V172.5H872.364ZM872.364 19.1667V1.91667H849.364V19.1667H872.364ZM897.356 134.167V116.917H874.356V134.167H897.356ZM922.272 134.167V116.917H899.272V134.167H922.272ZM922.272 95.8333V78.5833H899.272V95.8333H922.272ZM922.272 76.6667V59.4167H899.272V76.6667H922.272ZM922.272 57.5V40.25H899.272V57.5H922.272ZM922.272 38.3333V21.0833H899.272V38.3333H922.272ZM974.022 174.417H872.439V0H974.022V174.417ZM972.106 153.333V136.083H949.106V153.333H972.106ZM972.106 134.167V116.917H949.106V134.167H972.106ZM972.106 115V97.75H949.106V115H972.106ZM972.106 95.8333V78.5833H949.106V95.8333H972.106ZM972.106 76.6667V59.4167H949.106V76.6667H972.106ZM972.106 57.5V40.25H949.106V57.5H972.106ZM972.106 38.3333V21.0833H949.106V38.3333H972.106ZM897.356 172.5V155.25H874.356V172.5H897.356ZM922.272 172.5V155.25H899.272V172.5H922.272ZM947.189 172.5V155.25H924.189V172.5H947.189ZM972.106 172.5V155.25H949.106V172.5H972.106ZM897.356 19.1667V1.91667H874.356V19.1667H897.356ZM922.272 19.1667V1.91667H899.272V19.1667H922.272ZM947.189 19.1667V1.91667H924.189V19.1667H947.189ZM972.106 19.1667V1.91667H949.106V19.1667H972.106ZM897.356 115V97.75H874.356V115H897.356ZM997.082 153.333V136.083H974.082V153.333H997.082ZM997.082 134.167V116.917H974.082V134.167H997.082ZM997.082 115V97.75H974.082V115H997.082ZM1022 153.333V136.083H998.999V153.333H1022ZM1022 134.167V116.917H998.999V134.167H1022ZM1022 115V97.75H998.999V115H1022ZM1022 76.6667V59.4167H998.999V76.6667H1022ZM1022 57.5V40.25H998.999V57.5H1022ZM1022 38.3333V21.0833H998.999V38.3333H1022ZM1073.75 174.417H972.166V0H1073.75V174.417ZM1071.83 153.333V136.083H1048.83V153.333H1071.83ZM1071.83 134.167V116.917H1048.83V134.167H1071.83ZM1071.83 115V97.75H1048.83V115H1071.83ZM1071.83 95.8333V78.5833H1048.83V95.8333H1071.83ZM1071.83 76.6667V59.4167H1048.83V76.6667H1071.83ZM1071.83 57.5V40.25H1048.83V57.5H1071.83ZM1071.83 38.3333V21.0833H1048.83V38.3333H1071.83ZM997.082 172.5V155.25H974.082V172.5H997.082ZM1022 172.5V155.25H998.999V172.5H1022ZM1046.92 172.5V155.25H1023.92V172.5H1046.92ZM1071.83 172.5V155.25H1048.83V172.5H1071.83ZM997.082 19.1667V1.91667H974.082V19.1667H997.082ZM1022 19.1667V1.91667H998.999V19.1667H1022ZM1046.92 19.1667V1.91667H1023.92V19.1667H1046.92ZM1071.83 19.1667V1.91667H1048.83V19.1667H1071.83ZM1121.73 153.333V136.083H1098.73V153.333H1121.73ZM1121.73 134.167V116.917H1098.73V134.167H1121.73ZM1121.73 95.8333V78.5833H1098.73V95.8333H1121.73ZM1121.73 76.6667V59.4167H1098.73V76.6667H1121.73ZM1121.73 57.5V40.25H1098.73V57.5H1121.73ZM1173.48 174.417H1071.89V0H1173.48V174.417ZM1171.56 153.333V136.083H1148.56V153.333H1171.56ZM1171.56 134.167V116.917H1148.56V134.167H1171.56ZM1171.56 115V97.75H1148.56V115H1171.56ZM1171.56 95.8333V78.5833H1148.56V95.8333H1171.56ZM1171.56 76.6667V59.4167H1148.56V76.6667H1171.56ZM1171.56 57.5V40.25H1148.56V57.5H1171.56ZM1171.56 38.3333V21.0833H1148.56V38.3333H1171.56ZM1096.81 172.5V155.25H1073.81V172.5H1096.81ZM1121.73 172.5V155.25H1098.73V172.5H1121.73ZM1146.64 172.5V155.25H1123.64V172.5H1146.64ZM1171.56 172.5V155.25H1148.56V172.5H1171.56ZM1096.81 19.1667V1.91667H1073.81V19.1667H1096.81ZM1121.73 19.1667V1.91667H1098.73V19.1667H1121.73ZM1146.64 19.1667V1.91667H1123.64V19.1667H1146.64ZM1171.56 19.1667V1.91667H1148.56V19.1667H1171.56ZM1221.45 153.333V136.083H1198.45V153.333H1221.45ZM1221.45 134.167V116.917H1198.45V134.167H1221.45ZM1221.45 76.6667V59.4167H1198.45V76.6667H1221.45ZM1221.45 57.5V40.25H1198.45V57.5H1221.45ZM1221.45 38.3333V21.0833H1198.45V38.3333H1221.45ZM1246.37 153.333V136.083H1223.37V153.333H1246.37ZM1246.37 134.167V116.917H1223.37V134.167H1246.37ZM1246.37 115V97.75H1223.37V115H1246.37ZM1246.37 95.8333V78.5833H1223.37V95.8333H1246.37ZM1246.37 38.3333V21.0833H1223.37V38.3333H1246.37ZM1298.12 174.417H1171.62V0H1298.12V174.417ZM1196.54 172.5V155.25H1173.54V172.5H1196.54ZM1221.45 172.5V155.25H1198.45V172.5H1221.45ZM1246.37 172.5V155.25H1223.37V172.5H1246.37ZM1271.29 172.5V155.25H1248.29V172.5H1271.29ZM1196.54 19.1667V1.91667H1173.54V19.1667H1196.54ZM1271.29 19.1667V1.91667H1248.29V19.1667H1271.29ZM1296.2 153.333V136.083H1273.2V153.333H1296.2ZM1296.2 134.167V116.917H1273.2V134.167H1296.2ZM1296.2 115V97.75H1273.2V115H1296.2ZM1296.2 95.8333V78.5833H1273.2V95.8333H1296.2ZM1296.2 76.6667V59.4167H1273.2V76.6667H1296.2ZM1296.2 57.5V40.25H1273.2V57.5H1296.2ZM1296.2 38.3333V21.0833H1273.2V38.3333H1296.2ZM1296.2 172.5V155.25H1273.2V172.5H1296.2ZM1296.2 19.1667V1.91667H1273.2V19.1667H1296.2ZM1196.54 38.3333V21.0833H1173.54V38.3333H1196.54ZM1271.29 38.3333V21.0833H1248.29V38.3333H1271.29ZM1346.11 153.333V136.083H1323.11V153.333H1346.11ZM1346.11 134.167V116.917H1323.11V134.167H1346.11ZM1346.11 115V97.75H1323.11V115H1346.11ZM1346.11 76.6667V59.4167H1323.11V76.6667H1346.11ZM1346.11 57.5V40.25H1323.11V57.5H1346.11ZM1346.11 38.3333V21.0833H1323.11V38.3333H1346.11ZM1397.86 174.417H1296.28V0H1397.86V174.417ZM1395.94 153.333V136.083H1372.94V153.333H1395.94ZM1395.94 134.167V116.917H1372.94V134.167H1395.94ZM1395.94 115V97.75H1372.94V115H1395.94ZM1395.94 95.8333V78.5833H1372.94V95.8333H1395.94ZM1395.94 76.6667V59.4167H1372.94V76.6667H1395.94ZM1395.94 57.5V40.25H1372.94V57.5H1395.94ZM1395.94 38.3333V21.0833H1372.94V38.3333H1395.94ZM1321.19 172.5V155.25H1298.19V172.5H1321.19ZM1346.11 172.5V155.25H1323.11V172.5H1346.11ZM1371.03 172.5V155.25H1348.03V172.5H1371.03ZM1395.94 172.5V155.25H1372.94V172.5H1395.94ZM1321.19 19.1667V1.91667H1298.19V19.1667H1321.19ZM1346.11 19.1667V1.91667H1323.11V19.1667H1346.11ZM1371.03 19.1667V1.91667H1348.03V19.1667H1371.03ZM1395.94 19.1667V1.91667H1372.94V19.1667H1395.94ZM1445.84 134.167V116.917H1422.84V134.167H1445.84ZM1445.84 115V97.75H1422.84V115H1445.84ZM1445.84 95.8333V78.5833H1422.84V95.8333H1445.84ZM1445.84 76.6667V59.4167H1422.84V76.6667H1445.84ZM1445.84 57.5V40.25H1422.84V57.5H1445.84ZM1497.59 174.417H1396V0H1497.59V174.417ZM1495.67 153.333V136.083H1472.67V153.333H1495.67ZM1495.67 134.167V116.917H1472.67V134.167H1495.67ZM1495.67 115V97.75H1472.67V115H1495.67ZM1495.67 95.8333V78.5833H1472.67V95.8333H1495.67ZM1495.67 76.6667V59.4167H1472.67V76.6667H1495.67ZM1495.67 57.5V40.25H1472.67V57.5H1495.67ZM1495.67 38.3333V21.0833H1472.67V38.3333H1495.67ZM1420.92 172.5V155.25H1397.92V172.5H1420.92ZM1445.84 172.5V155.25H1422.84V172.5H1445.84ZM1470.75 172.5V155.25H1447.75V172.5H1470.75ZM1495.67 172.5V155.25H1472.67V172.5H1495.67ZM1420.92 19.1667V1.91667H1397.92V19.1667H1420.92ZM1445.84 19.1667V1.91667H1422.84V19.1667H1445.84ZM1470.75 19.1667V1.91667H1447.75V19.1667H1470.75ZM1495.67 19.1667V1.91667H1472.67V19.1667H1495.67ZM1545.56 134.167V116.917H1522.56V134.167H1545.56ZM1545.56 115V97.75H1522.56V115H1545.56ZM1545.56 95.8333V78.5833H1522.56V95.8333H1545.56ZM1545.56 76.6667V59.4167H1522.56V76.6667H1545.56ZM1545.56 57.5V40.25H1522.56V57.5H1545.56ZM1570.48 115V97.75H1547.48V115H1570.48ZM1570.48 95.8333V78.5833H1547.48V95.8333H1570.48ZM1570.48 76.6667V59.4167H1547.48V76.6667H1570.48ZM1597.31 174.417H1495.73V0H1597.31V174.417ZM1595.4 153.333V136.083H1572.4V153.333H1595.4ZM1595.4 134.167V116.917H1572.4V134.167H1595.4ZM1595.4 115V97.75H1572.4V115H1595.4ZM1595.4 95.8333V78.5833H1572.4V95.8333H1595.4ZM1595.4 76.6667V59.4167H1572.4V76.6667H1595.4ZM1595.4 57.5V40.25H1572.4V57.5H1595.4ZM1595.4 38.3333V21.0833H1572.4V38.3333H1595.4ZM1520.65 172.5V155.25H1497.65V172.5H1520.65ZM1545.56 172.5V155.25H1522.56V172.5H1545.56ZM1570.48 172.5V155.25H1547.48V172.5H1570.48ZM1595.4 172.5V155.25H1572.4V172.5H1595.4ZM1520.65 19.1667V1.91667H1497.65V19.1667H1520.65ZM1545.56 19.1667V1.91667H1522.56V19.1667H1545.56ZM1570.48 19.1667V1.91667H1547.48V19.1667H1570.48ZM1595.4 19.1667V1.91667H1572.4V19.1667H1595.4ZM1620.37 153.333V136.083H1597.37V153.333H1620.37ZM1620.37 134.167V116.917H1597.37V134.167H1620.37ZM1620.37 115V97.75H1597.37V115H1620.37ZM1620.37 95.8333V78.5833H1597.37V95.8333H1620.37ZM1620.37 76.6667V59.4167H1597.37V76.6667H1620.37ZM1620.37 57.5V40.25H1597.37V57.5H1620.37ZM1670.21 153.333V136.083H1647.21V153.333H1670.21ZM1670.21 134.167V116.917H1647.21V134.167H1670.21ZM1670.21 115V97.75H1647.21V115H1670.21ZM1670.21 95.8333V78.5833H1647.21V95.8333H1670.21ZM1670.21 76.6667V59.4167H1647.21V76.6667H1670.21ZM1670.21 57.5V40.25H1647.21V57.5H1670.21ZM1697.04 174.417H1595.46V0H1697.04V174.417ZM1695.12 153.333V136.083H1672.12V153.333H1695.12ZM1695.12 134.167V116.917H1672.12V134.167H1695.12ZM1695.12 115V97.75H1672.12V115H1695.12ZM1695.12 95.8333V78.5833H1672.12V95.8333H1695.12ZM1695.12 76.6667V59.4167H1672.12V76.6667H1695.12ZM1695.12 57.5V40.25H1672.12V57.5H1695.12ZM1695.12 38.3333V21.0833H1672.12V38.3333H1695.12ZM1620.37 172.5V155.25H1597.37V172.5H1620.37ZM1645.29 172.5V155.25H1622.29V172.5H1645.29ZM1670.21 172.5V155.25H1647.21V172.5H1670.21ZM1695.12 172.5V155.25H1672.12V172.5H1695.12ZM1620.37 19.1667V1.91667H1597.37V19.1667H1620.37ZM1645.29 19.1667V1.91667H1622.29V19.1667H1645.29ZM1670.21 19.1667V1.91667H1647.21V19.1667H1670.21ZM1695.12 19.1667V1.91667H1672.12V19.1667H1695.12ZM1745.02 134.167V116.917H1722.02V134.167H1745.02ZM1745.02 115V97.75H1722.02V115H1745.02ZM1745.02 76.6667V59.4167H1722.02V76.6667H1745.02ZM1745.02 57.5V40.25H1722.02V57.5H1745.02ZM1769.93 134.167V116.917H1746.93V134.167H1769.93ZM1769.93 115V97.75H1746.93V115H1769.93ZM1769.93 76.6667V59.4167H1746.93V76.6667H1769.93ZM1769.93 57.5V40.25H1746.93V57.5H1769.93ZM1796.77 174.417H1695.18V0H1796.77V174.417ZM1794.85 153.333V136.083H1771.85V153.333H1794.85ZM1794.85 134.167V116.917H1771.85V134.167H1794.85ZM1794.85 115V97.75H1771.85V115H1794.85ZM1794.85 95.8333V78.5833H1771.85V95.8333H1794.85ZM1794.85 76.6667V59.4167H1771.85V76.6667H1794.85ZM1794.85 57.5V40.25H1771.85V57.5H1794.85ZM1794.85 38.3333V21.0833H1771.85V38.3333H1794.85ZM1720.1 172.5V155.25H1697.1V172.5H1720.1ZM1745.02 172.5V155.25H1722.02V172.5H1745.02ZM1769.93 172.5V155.25H1746.93V172.5H1769.93ZM1794.85 172.5V155.25H1771.85V172.5H1794.85ZM1720.1 19.1667V1.91667H1697.1V19.1667H1720.1ZM1745.02 19.1667V1.91667H1722.02V19.1667H1745.02ZM1769.93 19.1667V1.91667H1746.93V19.1667H1769.93ZM1794.85 19.1667V1.91667H1771.85V19.1667H1794.85ZM1844.74 153.333V136.083H1821.74V153.333H1844.74ZM1844.74 134.167V116.917H1821.74V134.167H1844.74ZM1844.74 76.6667V59.4167H1821.74V76.6667H1844.74ZM1844.74 57.5V40.25H1821.74V57.5H1844.74ZM1844.74 38.3333V21.0833H1821.74V38.3333H1844.74ZM1869.66 153.333V136.083H1846.66V153.333H1869.66ZM1869.66 134.167V116.917H1846.66V134.167H1869.66ZM1869.66 115V97.75H1846.66V115H1869.66ZM1869.66 95.8333V78.5833H1846.66V95.8333H1869.66ZM1869.66 38.3333V21.0833H1846.66V38.3333H1869.66ZM1921.41 174.417H1794.91V0H1921.41V174.417ZM1819.83 172.5V155.25H1796.83V172.5H1819.83ZM1844.74 172.5V155.25H1821.74V172.5H1844.74ZM1869.66 172.5V155.25H1846.66V172.5H1869.66ZM1894.58 172.5V155.25H1871.58V172.5H1894.58ZM1819.83 19.1667V1.91667H1796.83V19.1667H1819.83ZM1894.58 19.1667V1.91667H1871.58V19.1667H1894.58ZM1919.49 153.333V136.083H1896.49V153.333H1919.49ZM1919.49 134.167V116.917H1896.49V134.167H1919.49ZM1919.49 115V97.75H1896.49V115H1919.49ZM1919.49 95.8333V78.5833H1896.49V95.8333H1919.49ZM1919.49 76.6667V59.4167H1896.49V76.6667H1919.49ZM1919.49 57.5V40.25H1896.49V57.5H1919.49ZM1919.49 38.3333V21.0833H1896.49V38.3333H1919.49ZM1919.49 172.5V155.25H1896.49V172.5H1919.49ZM1919.49 19.1667V1.91667H1896.49V19.1667H1919.49ZM1819.83 38.3333V21.0833H1796.83V38.3333H1819.83ZM1894.58 38.3333V21.0833H1871.58V38.3333H1894.58Z" fill="#D2D2D2"/>
</g>
<defs>
<clipPath id="clip0_282_5153">
<rect width="1920" height="175" fill="white"/>
</clipPath>
</defs>
</svg>
