<svg width="175" height="162" viewBox="0 0 175 162" fill="none" xmlns="http://www.w3.org/2000/svg">
<rect width="175" height="162" fill="#D2D2D2"/>
<path d="M128 31H168V111H148V71H128V131H108V151H48V71H28V111H8V31H48V11H128V31Z" fill="black"/>
<g clip-path="url(#clip0_285_9197)">
<path d="M101.334 34.667H105V38.333H108.667V42H112.334V45.667H116V49.333H112.334V53H108.667V56.667H105V60.333H101.334V64H75.667V60.333H72V56.667H68.333V53H64.667V49.333H61V45.667H64.667V42H68.333V38.333H72V34.667H75.667V31H101.334V34.667ZM83 42H79.334V53H83V56.667H94V53H97.667V42H94V38.333H83V42Z" fill="#D9D9D9"/>
</g>
<defs>
<clipPath id="clip0_285_9197">
<rect width="55" height="33" fill="white" transform="translate(61 31)"/>
</clipPath>
</defs>
</svg>
